<svg version="1.1" id="Layer_1" xmlns="http://www.w3.org/2000/svg" xmlns:xlink="http://www.w3.org/1999/xlink" x="0px" y="0px"
	 width="100%" viewBox="0 0 807 309" enable-background="new 0 0 807 309" xml:space="preserve">
<path fill="#000000" opacity="1.000000" stroke="none" 
	d="
M524.000000,310.000000 
	C349.372345,310.000000 175.244675,310.000000 1.058503,310.000000 
	C1.058503,207.062103 1.058503,104.124146 1.058503,1.093101 
	C269.877655,1.093101 538.755371,1.093101 807.816528,1.093101 
	C807.816528,103.999741 807.816528,206.999832 807.816528,310.000000 
	C713.457458,310.000000 618.978760,310.000000 524.000000,310.000000 
M319.909546,241.992798 
	C332.690216,241.993912 345.471039,242.026260 358.251282,241.954880 
	C359.774139,241.946365 361.293823,241.372131 362.899872,240.118713 
	C362.936768,204.989059 363.013397,169.859390 362.995758,134.729752 
	C362.985077,113.424934 362.828552,92.120178 362.190277,70.214577 
	C347.492065,70.214577 332.793884,70.214577 318.092651,70.214577 
	C318.092651,71.872520 318.092651,73.360718 317.987427,75.598816 
	C318.031982,76.101212 318.076508,76.603615 318.052765,78.022934 
	C318.071594,100.647247 318.090454,123.271561 318.017334,146.775940 
	C318.051147,148.543365 318.084961,150.310776 318.101074,152.489578 
	C318.101074,152.489578 318.146088,152.898880 318.056580,153.647461 
	C318.072388,154.148361 318.088196,154.649277 318.035004,156.066284 
	C318.023590,183.552170 318.000580,211.038055 318.041809,238.523865 
	C318.043518,239.658035 318.647369,240.791306 319.909546,241.992798 
M690.875000,241.926147 
	C704.007751,241.939392 717.140564,241.976151 730.273132,241.926132 
	C731.461975,241.921600 732.648682,241.358337 733.932129,240.114670 
	C733.962219,226.802963 734.026428,213.491241 734.015930,200.179565 
	C733.982056,157.084412 733.920654,113.989281 733.458374,70.152184 
	C719.771973,70.105606 706.085449,70.018761 692.399597,70.089340 
	C691.311401,70.094948 690.228821,71.190186 688.731262,72.372360 
	C683.317505,81.538315 677.963440,90.740273 672.462769,99.853745 
	C670.022949,103.896027 667.119812,107.660774 664.718567,111.723793 
	C658.876831,121.608032 653.205688,131.593109 646.662292,142.929733 
	C631.999634,118.215164 617.959778,94.550369 603.480408,70.153343 
	C589.786194,70.102097 576.092041,70.033150 562.397888,70.043442 
	C561.573181,70.044060 560.749084,70.676483 560.013733,70.994865 
	C560.013733,70.994865 559.993896,70.905754 559.284729,71.415215 
	C559.192322,89.862923 559.023560,108.310631 559.023560,126.758339 
	C559.023560,164.500092 559.114197,202.241837 559.120483,240.837997 
	C559.421143,241.169678 559.720825,241.790543 560.022522,241.791519 
	C574.596619,241.839020 589.170898,241.833038 603.996338,241.833038 
	C603.996338,239.604782 603.996094,237.797485 603.996338,235.990189 
	C603.999329,210.361206 603.983765,184.732162 604.048340,159.103333 
	C604.052551,157.428665 604.671143,155.755539 605.228394,154.732773 
	C606.809570,157.410263 608.382629,160.092560 609.973267,162.764420 
	C616.437012,173.622345 622.849121,184.511597 629.393311,195.320847 
	C633.740540,202.501129 638.078247,209.703445 642.824219,216.618637 
	C644.940918,219.702835 649.110718,219.067886 651.049133,215.868500 
	C659.290771,202.265411 667.515259,188.651901 675.714417,175.023163 
	C679.833313,168.176636 683.884644,161.289398 688.805664,154.529205 
	C688.873108,181.961060 688.924622,209.393005 689.047180,236.824615 
	C689.054565,238.489426 689.626160,240.151718 690.875000,241.926147 
M77.130013,204.756149 
	C78.245308,205.107758 79.360603,205.459366 80.536751,205.899918 
	C80.536751,205.899918 80.641243,205.873520 80.986130,206.517868 
	C82.016006,206.940536 83.045883,207.363205 84.702095,208.090591 
	C87.147675,209.706497 89.491211,211.509995 92.056709,212.905411 
	C102.406593,218.534821 112.861732,223.970795 123.208893,229.605118 
	C136.586853,236.889786 149.880371,244.329758 163.274582,251.584061 
	C164.332733,252.157150 166.156326,252.319519 167.178284,251.798370 
	C175.414780,247.598190 183.602509,243.293533 191.694214,238.820129 
	C207.766724,229.934647 223.786850,220.953812 239.787521,211.939453 
	C244.421387,209.328842 248.915436,206.470062 254.394043,203.647705 
	C254.585831,203.026642 254.944977,202.405716 254.945511,201.784515 
	C254.979858,161.763611 254.993698,121.742683 254.930237,81.721893 
	C254.928986,80.934120 253.990509,80.147835 252.766373,79.167595 
	C251.573517,79.357742 250.380646,79.547890 248.820496,79.796577 
	C248.820496,75.434647 248.820496,71.462418 248.820496,67.218742 
	C247.106339,67.433411 245.740738,67.604431 244.409790,67.771111 
	C243.693558,65.093384 243.010193,62.538502 242.053665,58.962357 
	C237.539001,63.297405 233.973969,67.235123 229.890839,70.530991 
	C222.110199,76.811478 213.930801,82.596176 206.106491,88.824791 
	C196.470749,96.495430 186.909531,104.271019 177.580231,112.307884 
	C175.010437,114.521690 171.664810,117.820221 171.650650,120.635986 
	C171.611191,128.484787 173.307983,136.326355 173.984924,144.199509 
	C174.586578,151.197357 176.257751,156.476883 183.899078,159.671631 
	C193.776688,163.801300 203.039536,169.535431 212.196991,175.179230 
	C215.308731,177.096970 217.298233,180.835602 219.800552,183.742157 
	C219.313126,184.455338 218.825714,185.168518 218.338303,185.881699 
	C208.816299,183.272964 199.310883,180.601364 189.765518,178.081009 
	C184.719467,176.748627 179.603912,175.679474 174.785477,174.553574 
	C173.803406,181.450333 172.748383,186.934967 172.302353,192.468689 
	C171.717514,199.724487 171.390350,207.004303 178.584656,211.957886 
	C180.279343,213.124741 181.248810,215.344910 182.551895,217.080521 
	C182.109375,217.593277 181.666855,218.106033 181.224335,218.618790 
	C178.175812,217.296295 174.749268,216.479752 172.158722,214.544266 
	C167.024811,210.708511 162.271133,210.416092 156.990051,214.018707 
	C154.419907,215.771942 151.504517,217.019012 148.745407,218.495224 
	C148.433212,218.089645 148.121002,217.684067 147.808807,217.278473 
	C149.185974,215.344650 150.307037,213.143509 151.991104,211.530014 
	C156.089554,207.603333 159.125702,203.499054 157.939957,197.312698 
	C156.551651,190.069473 155.505600,182.760651 154.159576,174.556824 
	C139.974991,178.136200 125.690620,181.740768 110.763840,185.507446 
	C112.912659,179.238617 115.875252,175.628967 121.051430,173.198242 
	C130.555344,168.735245 139.626160,163.357300 148.954056,158.507996 
	C151.963776,156.943314 154.239075,155.141556 154.666809,151.492950 
	C155.679352,142.855881 156.926544,134.245712 157.880081,125.602753 
	C158.147095,123.182648 158.546661,120.186249 157.426071,118.339935 
	C155.663757,115.436264 152.840057,113.071602 150.159805,110.847382 
	C133.388428,96.929527 116.566391,83.071976 99.677185,69.297386 
	C95.976967,66.279549 91.937347,63.677853 87.521873,60.501724 
	C87.169998,63.629688 86.924995,65.807610 86.626099,68.464615 
	C81.496490,65.796432 81.016541,68.353371 80.965515,72.275833 
	C80.931366,74.900497 79.858734,77.511650 78.750427,79.443832 
	C77.563446,79.378418 76.376457,79.313004 74.164391,79.191101 
	C74.164391,88.198891 74.164391,96.606880 74.016113,105.943016 
	C74.064491,123.292839 74.112869,140.642670 74.028870,158.921432 
	C74.336243,172.916702 74.601410,186.913300 75.035141,200.904648 
	C75.068039,201.965927 76.297646,202.990128 76.999695,204.001831 
	C76.999695,204.001831 76.972816,204.035690 77.130013,204.756149 
M438.740631,240.443283 
	C443.608154,241.324417 448.593353,241.798203 453.321014,243.163620 
	C467.099670,247.143158 480.707306,244.361237 494.317108,242.485199 
	C498.162720,241.955078 502.059662,240.681305 505.563629,238.985306 
	C519.446167,232.265793 532.168884,224.031784 541.547363,211.296677 
	C545.525452,205.894836 545.333069,204.263428 539.320984,200.821869 
	C530.893127,195.997452 522.615601,190.896057 514.429626,185.669052 
	C509.628815,182.603531 506.426544,182.311264 504.042938,185.751160 
	C494.065765,200.149628 474.749756,204.250534 460.168854,200.956711 
	C445.961578,197.747299 435.822357,189.527496 429.954834,175.372284 
	C421.678284,155.405334 427.938019,127.040840 449.567505,115.949463 
	C465.155060,107.956345 489.272156,108.351631 502.502350,125.974083 
	C503.793823,127.694275 506.687317,129.672424 508.381958,129.322998 
	C511.834198,128.611145 515.082886,126.577248 518.223633,124.757103 
	C525.485779,120.548553 532.509460,115.915817 539.868164,111.890747 
	C545.468445,108.827507 546.026611,109.383102 541.611633,102.850761 
	C536.005981,94.556839 528.579773,88.196098 520.470947,82.387436 
	C512.856384,76.932716 504.498718,73.362534 495.686615,70.645409 
	C482.908325,66.705345 469.731628,67.804115 456.709961,68.299782 
	C450.707031,68.528275 444.574158,70.128830 438.856964,72.127609 
	C425.006073,76.969963 413.871796,85.754990 403.785278,96.417892 
	C394.299408,106.445816 388.499725,118.172958 385.256927,131.154480 
	C382.493317,142.217773 382.109375,153.552917 382.809570,165.114548 
	C383.787994,181.269867 388.289856,196.008118 397.396545,209.086548 
	C401.822144,215.442307 407.458008,221.356415 413.661865,225.969894 
	C421.181091,231.561584 429.879822,235.567154 438.740631,240.443283 
z"/>
<path fill="#FB2F04" opacity="1.000000" stroke="none" 
	d="
M80.641243,205.873520 
	C80.641243,205.873520 80.536751,205.899918 80.294724,205.565536 
	C79.026070,204.832672 77.999443,204.434189 76.972816,204.035690 
	C76.972816,204.035690 76.999695,204.001831 76.958710,203.598724 
	C76.641891,200.392075 76.130180,197.588913 76.126022,194.784988 
	C76.072701,158.857971 76.076233,122.930832 76.124901,87.003815 
	C76.128502,84.342262 75.221176,81.053024 79.250801,80.128853 
	C79.858734,77.511650 80.931366,74.900497 80.965515,72.275833 
	C81.016541,68.353371 81.496490,65.796432 86.626099,68.464615 
	C86.924995,65.807610 87.169998,63.629688 87.521873,60.501724 
	C91.937347,63.677853 95.976967,66.279549 99.677185,69.297386 
	C116.566391,83.071976 133.388428,96.929527 150.159805,110.847382 
	C152.840057,113.071602 155.663757,115.436264 157.426071,118.339935 
	C158.546661,120.186249 158.147095,123.182648 157.880081,125.602753 
	C156.926544,134.245712 155.679352,142.855881 154.666809,151.492950 
	C154.239075,155.141556 151.963776,156.943314 148.954056,158.507996 
	C139.626160,163.357300 130.555344,168.735245 121.051430,173.198242 
	C115.875252,175.628967 112.912659,179.238617 110.763840,185.507446 
	C125.690620,181.740768 139.974991,178.136200 154.159576,174.556824 
	C155.505600,182.760651 156.551651,190.069473 157.939957,197.312698 
	C159.125702,203.499054 156.089554,207.603333 151.991104,211.530014 
	C150.307037,213.143509 149.185974,215.344650 147.808807,217.278473 
	C148.121002,217.684067 148.433212,218.089645 148.745407,218.495224 
	C151.504517,217.019012 154.419907,215.771942 156.990051,214.018707 
	C162.271133,210.416092 167.024811,210.708511 172.158722,214.544266 
	C174.749268,216.479752 178.175812,217.296295 181.224335,218.618790 
	C181.666855,218.106033 182.109375,217.593277 182.551895,217.080521 
	C181.248810,215.344910 180.279343,213.124741 178.584656,211.957886 
	C171.390350,207.004303 171.717514,199.724487 172.302353,192.468689 
	C172.748383,186.934967 173.803406,181.450333 174.785477,174.553574 
	C179.603912,175.679474 184.719467,176.748627 189.765518,178.081009 
	C199.310883,180.601364 208.816299,183.272964 218.338303,185.881699 
	C218.825714,185.168518 219.313126,184.455338 219.800552,183.742157 
	C217.298233,180.835602 215.308731,177.096970 212.196991,175.179230 
	C203.039536,169.535431 193.776688,163.801300 183.899078,159.671631 
	C176.257751,156.476883 174.586578,151.197357 173.984924,144.199509 
	C173.307983,136.326355 171.611191,128.484787 171.650650,120.635986 
	C171.664810,117.820221 175.010437,114.521690 177.580231,112.307884 
	C186.909531,104.271019 196.470749,96.495430 206.106491,88.824791 
	C213.930801,82.596176 222.110199,76.811478 229.890839,70.530991 
	C233.973969,67.235123 237.539001,63.297405 242.053665,58.962357 
	C243.010193,62.538502 243.693558,65.093384 244.409790,67.771111 
	C245.740738,67.604431 247.106339,67.433411 248.820496,67.218742 
	C248.820496,71.462418 248.820496,75.434647 248.820496,79.796577 
	C250.380646,79.547890 251.573517,79.357742 253.196228,79.705467 
	C253.726715,81.898567 253.914230,83.553734 253.915268,85.209023 
	C253.938736,122.734245 253.949020,160.259476 253.928406,197.784683 
	C253.927307,199.764893 253.631943,201.744919 253.473572,203.725037 
	C248.915436,206.470062 244.421387,209.328842 239.787521,211.939453 
	C223.786850,220.953812 207.766724,229.934647 191.694214,238.820129 
	C183.602509,243.293533 175.414780,247.598190 167.178284,251.798370 
	C166.156326,252.319519 164.332733,252.157150 163.274582,251.584061 
	C149.880371,244.329758 136.586853,236.889786 123.208893,229.605118 
	C112.861732,223.970795 102.406593,218.534821 92.056709,212.905411 
	C89.491211,211.509995 87.147675,209.706497 84.219971,207.632874 
	C82.705650,206.741287 81.673447,206.307404 80.641243,205.873520 
z"/>
<path fill="#323232" opacity="1.000000" stroke="none" 
	d="
M603.919922,70.885574 
	C617.959778,94.550369 631.999634,118.215164 646.662292,142.929733 
	C653.205688,131.593109 658.876831,121.608032 664.718567,111.723793 
	C667.119812,107.660774 670.022949,103.896027 672.462769,99.853745 
	C677.963440,90.740273 683.317505,81.538315 689.311279,71.915825 
	C704.241394,71.354958 718.591492,71.250626 732.956055,71.605576 
	C732.927734,85.750717 732.884949,99.436577 732.806641,113.217010 
	C732.726685,113.514771 732.756958,113.708488 732.896362,114.296097 
	C732.913086,115.508179 732.895447,116.316902 732.705566,117.485367 
	C732.356262,119.321045 732.025757,120.796852 732.024414,122.272964 
	C731.994385,155.036377 731.986328,187.799820 732.038635,220.563171 
	C732.041504,222.343063 732.606445,224.122086 732.948486,226.342438 
	C732.965820,228.552643 732.944336,230.321899 732.749023,232.435303 
	C732.387817,235.495926 732.200500,238.212418 731.546997,240.989319 
	C717.408447,241.008774 703.736084,240.967789 690.031189,240.463745 
	C689.998657,210.939346 689.998657,181.878006 689.998657,152.816650 
	C689.679749,152.746826 689.360840,152.676987 689.041931,152.607162 
	C688.683472,153.211639 688.325012,153.816116 687.966553,154.420593 
	C683.884644,161.289398 679.833313,168.176636 675.714417,175.023163 
	C667.515259,188.651901 659.290771,202.265411 651.049133,215.868500 
	C649.110718,219.067886 644.940918,219.702835 642.824219,216.618637 
	C638.078247,209.703445 633.740540,202.501129 629.393311,195.320847 
	C622.849121,184.511597 616.437012,173.622345 609.973267,162.764420 
	C608.382629,160.092560 606.809570,157.410263 605.047180,154.087616 
	C601.074585,152.998611 603.134888,155.936035 603.129089,157.020477 
	C602.988464,183.266571 602.938721,209.513947 603.086304,235.759903 
	C603.109009,239.801682 602.046875,241.278793 597.805115,241.175201 
	C586.681763,240.903564 575.547180,241.121887 564.418091,241.028107 
	C562.871643,241.015060 561.330811,240.342468 559.847412,239.511505 
	C559.936340,183.000488 559.965149,126.953117 559.993896,70.905754 
	C559.993896,70.905754 560.013733,70.994865 560.442505,71.023315 
	C575.220764,70.996361 589.570374,70.940971 603.919922,70.885574 
z"/>
<path fill="#333333" opacity="1.000000" stroke="none" 
	d="
M438.404419,240.351166 
	C429.879822,235.567154 421.181091,231.561584 413.661865,225.969894 
	C407.458008,221.356415 401.822144,215.442307 397.396545,209.086548 
	C388.289856,196.008118 383.787994,181.269867 382.809570,165.114548 
	C382.109375,153.552917 382.493317,142.217773 385.256927,131.154480 
	C388.499725,118.172958 394.299408,106.445816 403.785278,96.417892 
	C413.871796,85.754990 425.006073,76.969963 438.856964,72.127609 
	C444.574158,70.128830 450.707031,68.528275 456.709961,68.299782 
	C469.731628,67.804115 482.908325,66.705345 495.686615,70.645409 
	C504.498718,73.362534 512.856384,76.932716 520.470947,82.387436 
	C528.579773,88.196098 536.005981,94.556839 541.611633,102.850761 
	C546.026611,109.383102 545.468445,108.827507 539.868164,111.890747 
	C532.509460,115.915817 525.485779,120.548553 518.223633,124.757103 
	C515.082886,126.577248 511.834198,128.611145 508.381958,129.322998 
	C506.687317,129.672424 503.793823,127.694275 502.502350,125.974083 
	C489.272156,108.351631 465.155060,107.956345 449.567505,115.949463 
	C427.938019,127.040840 421.678284,155.405334 429.954834,175.372284 
	C435.822357,189.527496 445.961578,197.747299 460.168854,200.956711 
	C474.749756,204.250534 494.065765,200.149628 504.042938,185.751160 
	C506.426544,182.311264 509.628815,182.603531 514.429626,185.669052 
	C522.615601,190.896057 530.893127,195.997452 539.320984,200.821869 
	C545.333069,204.263428 545.525452,205.894836 541.547363,211.296677 
	C532.168884,224.031784 519.446167,232.265793 505.563629,238.985306 
	C502.059662,240.681305 498.162720,241.955078 494.317108,242.485199 
	C480.707306,244.361237 467.099670,247.143158 453.321014,243.163620 
	C448.593353,241.798203 443.608154,241.324417 438.404419,240.351166 
z"/>
<path fill="#323232" opacity="1.000000" stroke="none" 
	d="
M318.104004,155.150177 
	C318.088196,154.649277 318.072388,154.148361 318.137268,153.172318 
	C318.262421,152.480804 318.229340,152.274490 318.118774,152.078201 
	C318.084961,150.310776 318.051147,148.543365 318.235992,145.974152 
	C318.630981,144.030869 318.959198,142.889633 318.961029,141.747864 
	C318.993713,121.649338 319.004456,101.550713 318.950684,81.452286 
	C318.946808,80.002800 318.410065,78.554733 318.121063,77.106010 
	C318.076508,76.603615 318.031982,76.101212 318.344788,74.991798 
	C318.674835,71.548775 320.225006,71.068382 322.791809,71.090736 
	C335.847412,71.204414 348.904755,71.117607 361.975311,71.563187 
	C361.958740,93.719276 361.928375,115.413193 361.722748,137.467468 
	C361.365479,139.303436 361.026276,140.778870 361.024658,142.254654 
	C360.993378,171.039215 360.984711,199.823853 361.041962,228.608353 
	C361.045502,230.386124 361.632507,232.162750 361.984802,234.347137 
	C362.007690,235.843643 361.993835,236.932938 361.811584,238.274582 
	C361.436798,239.302826 361.230377,240.078705 360.556213,240.905548 
	C346.440216,240.918396 332.791962,240.880249 319.087402,240.386383 
	C319.019836,213.562469 319.026886,187.194183 318.959015,160.826096 
	C318.954163,158.933411 318.401794,157.042114 318.104004,155.150177 
z"/>
<path fill="#5A5A5A" opacity="1.000000" stroke="none" 
	d="
M361.898010,137.107101 
	C361.928375,115.413193 361.958740,93.719276 362.149200,71.437088 
	C362.309265,70.848816 362.737549,70.815392 362.737549,70.815392 
	C362.828552,92.120178 362.985077,113.424934 362.995758,134.729752 
	C363.013397,169.859390 362.936768,204.989059 362.632446,240.567902 
	C362.365021,241.017090 361.921234,240.931396 361.962677,240.569122 
	C361.996063,239.478622 361.988007,238.750427 361.979950,238.022217 
	C361.993835,236.932938 362.007690,235.843643 362.009766,233.885254 
	C361.964661,201.046448 361.931305,169.076782 361.898010,137.107101 
z"/>
<path fill="#5A5A5A" opacity="1.000000" stroke="none" 
	d="
M732.842163,113.122429 
	C732.884949,99.436577 732.927734,85.750717 733.185547,71.532928 
	C733.400513,71.000992 733.869873,70.894142 733.869873,70.894142 
	C733.920654,113.989281 733.982056,157.084412 734.015930,200.179565 
	C734.026428,213.491241 733.962219,226.802963 733.654785,240.560760 
	C733.377380,241.006866 732.921936,240.932495 732.956177,240.490051 
	C732.967896,237.395462 732.945374,234.743301 732.922852,232.091156 
	C732.944336,230.321899 732.965820,228.552643 732.972168,225.884140 
	C732.930542,189.031799 732.904114,153.078720 732.877686,117.125626 
	C732.895447,116.316902 732.913086,115.508179 732.901794,114.103592 
	C732.872803,113.507729 732.842163,113.122429 732.842163,113.122429 
z"/>
<path fill="#848484" opacity="1.000000" stroke="none" 
	d="
M559.639282,71.160484 
	C559.965149,126.953117 559.936340,183.000488 559.692444,239.512299 
	C559.477356,239.976761 559.167480,239.983597 559.167480,239.983597 
	C559.114197,202.241837 559.023560,164.500092 559.023560,126.758339 
	C559.023560,108.310631 559.192322,89.862923 559.639282,71.160484 
z"/>
<path fill="#D24B35" opacity="1.000000" stroke="none" 
	d="
M79.000610,79.786346 
	C75.221176,81.053024 76.128502,84.342262 76.124901,87.003815 
	C76.076233,122.930832 76.072701,158.857971 76.126022,194.784988 
	C76.130180,197.588913 76.641891,200.392075 76.944351,203.613586 
	C76.297646,202.990128 75.068039,201.965927 75.035141,200.904648 
	C74.601410,186.913300 74.336243,172.916702 74.381027,158.148865 
	C74.800819,140.504272 74.876205,123.632271 74.903275,106.760178 
	C74.904213,106.178795 74.421616,105.596649 74.164391,105.014862 
	C74.164391,96.606880 74.164391,88.198891 74.164391,79.191101 
	C76.376457,79.313004 77.563446,79.378418 79.000610,79.786346 
z"/>
<path fill="#7A7A7A" opacity="1.000000" stroke="none" 
	d="
M559.143982,240.410797 
	C559.167480,239.983597 559.477356,239.976761 559.632324,239.975967 
	C561.330811,240.342468 562.871643,241.015060 564.418091,241.028107 
	C575.547180,241.121887 586.681763,240.903564 597.805115,241.175201 
	C602.046875,241.278793 603.109009,239.801682 603.086304,235.759903 
	C602.938721,209.513947 602.988464,183.266571 603.129089,157.020477 
	C603.134888,155.936035 601.074585,152.998611 604.934937,153.762085 
	C604.671143,155.755539 604.052551,157.428665 604.048340,159.103333 
	C603.983765,184.732162 603.999329,210.361206 603.996338,235.990189 
	C603.996094,237.797485 603.996338,239.604782 603.996338,241.833038 
	C589.170898,241.833038 574.596619,241.839020 560.022522,241.791519 
	C559.720825,241.790543 559.421143,241.169678 559.143982,240.410797 
z"/>
<path fill="#DB5F46" opacity="1.000000" stroke="none" 
	d="
M253.933807,203.686371 
	C253.631943,201.744919 253.927307,199.764893 253.928406,197.784683 
	C253.949020,160.259476 253.938736,122.734245 253.915268,85.209023 
	C253.914230,83.553734 253.726715,81.898567 253.557678,79.802094 
	C253.990509,80.147835 254.928986,80.934120 254.930237,81.721893 
	C254.993698,121.742683 254.979858,161.763611 254.945511,201.784515 
	C254.944977,202.405716 254.585831,203.026642 253.933807,203.686371 
z"/>
<path fill="#A5A5A5" opacity="1.000000" stroke="none" 
	d="
M688.386108,154.474899 
	C688.325012,153.816116 688.683472,153.211639 689.041931,152.607162 
	C689.360840,152.676987 689.679749,152.746826 689.998657,152.816650 
	C689.998657,181.878006 689.998657,210.939346 689.981079,240.683243 
	C689.963501,241.365784 689.935242,241.815186 689.935242,241.815186 
	C689.626160,240.151718 689.054565,238.489426 689.047180,236.824615 
	C688.924622,209.393005 688.873108,181.961060 688.386108,154.474899 
z"/>
<path fill="#A5A5A5" opacity="1.000000" stroke="none" 
	d="
M318.069519,155.608231 
	C318.401794,157.042114 318.954163,158.933411 318.959015,160.826096 
	C319.026886,187.194183 319.019836,213.562469 319.059143,240.659515 
	C319.048370,241.567215 319.009552,241.746109 318.970703,241.924988 
	C318.647369,240.791306 318.043518,239.658035 318.041809,238.523865 
	C318.000580,211.038055 318.023590,183.552170 318.069519,155.608231 
z"/>
<path fill="#3D3D3D" opacity="1.000000" stroke="none" 
	d="
M318.086914,77.564468 
	C318.410065,78.554733 318.946808,80.002800 318.950684,81.452286 
	C319.004456,101.550713 318.993713,121.649338 318.961029,141.747864 
	C318.959198,142.889633 318.630981,144.030869 318.281982,145.534119 
	C318.090454,123.271561 318.071594,100.647247 318.086914,77.564468 
z"/>
<path fill="#FFACA5" opacity="1.000000" stroke="none" 
	d="
M74.090256,105.478943 
	C74.421616,105.596649 74.904213,106.178795 74.903275,106.760178 
	C74.876205,123.632271 74.800819,140.504272 74.447220,157.684387 
	C74.112869,140.642670 74.064491,123.292839 74.090256,105.478943 
z"/>
<path fill="#B4B4B4" opacity="1.000000" stroke="none" 
	d="
M362.463928,70.514984 
	C362.737549,70.815392 362.309265,70.848816 362.135376,70.974907 
	C348.904755,71.117607 335.847412,71.204414 322.791809,71.090736 
	C320.225006,71.068382 318.674835,71.548775 318.397400,74.616844 
	C318.092651,73.360718 318.092651,71.872520 318.092651,70.214577 
	C332.793884,70.214577 347.492065,70.214577 362.463928,70.514984 
z"/>
<path fill="#B4B4B4" opacity="1.000000" stroke="none" 
	d="
M733.664124,70.523163 
	C733.869873,70.894142 733.400513,71.000992 733.171082,71.073639 
	C718.591492,71.250626 704.241394,71.354958 689.517456,71.619171 
	C690.228821,71.190186 691.311401,70.094948 692.399597,70.089340 
	C706.085449,70.018761 719.771973,70.105606 733.664124,70.523163 
z"/>
<path fill="#7A7A7A" opacity="1.000000" stroke="none" 
	d="
M319.440125,241.958893 
	C319.009552,241.746109 319.048370,241.567215 319.115479,241.115204 
	C332.791962,240.880249 346.440216,240.918396 360.778503,240.948242 
	C361.468567,240.939941 361.921234,240.931396 361.921234,240.931396 
	C361.921234,240.931396 362.365021,241.017090 362.589996,241.038605 
	C361.293823,241.372131 359.774139,241.946365 358.251282,241.954880 
	C345.471039,242.026260 332.690216,241.993912 319.440125,241.958893 
z"/>
<path fill="#7A7A7A" opacity="1.000000" stroke="none" 
	d="
M690.405151,241.870667 
	C689.935242,241.815186 689.963501,241.365784 690.013611,241.146301 
	C703.736084,240.967789 717.408447,241.008774 731.774048,241.013123 
	C732.467346,240.976501 732.921936,240.932495 732.921936,240.932495 
	C732.921936,240.932495 733.377380,241.006866 733.606934,241.030701 
	C732.648682,241.358337 731.461975,241.921600 730.273132,241.926132 
	C717.140564,241.976151 704.007751,241.939392 690.405151,241.870667 
z"/>
<path fill="#B4B4B4" opacity="1.000000" stroke="none" 
	d="
M603.700195,70.519455 
	C589.570374,70.940971 575.220764,70.996361 560.397949,71.033340 
	C560.749084,70.676483 561.573181,70.044060 562.397888,70.043442 
	C576.092041,70.033150 589.786194,70.102097 603.700195,70.519455 
z"/>
<path fill="#D24B35" opacity="1.000000" stroke="none" 
	d="
M77.051414,204.395920 
	C77.999443,204.434189 79.026070,204.832672 80.264297,205.521057 
	C79.360603,205.459366 78.245308,205.107758 77.051414,204.395920 
z"/>
<path fill="#D24B35" opacity="1.000000" stroke="none" 
	d="
M80.813690,206.195694 
	C81.673447,206.307404 82.705650,206.741287 83.906807,207.480515 
	C83.045883,207.363205 82.016006,206.940536 80.813690,206.195694 
z"/>
<path fill="#3D3D3D" opacity="1.000000" stroke="none" 
	d="
M318.109924,152.283890 
	C318.229340,152.274490 318.262421,152.480804 318.182007,152.798035 
	C318.146088,152.898880 318.101074,152.489578 318.109924,152.283890 
z"/>
<path fill="#272727" opacity="1.000000" stroke="none" 
	d="
M732.705566,117.485367 
	C732.904114,153.078720 732.930542,189.031799 732.933350,225.443207 
	C732.606445,224.122086 732.041504,222.343063 732.038635,220.563171 
	C731.986328,187.799820 731.994385,155.036377 732.024414,122.272964 
	C732.025757,120.796852 732.356262,119.321045 732.705566,117.485367 
z"/>
<path fill="#272727" opacity="1.000000" stroke="none" 
	d="
M732.956177,240.490051 
	C732.921936,240.932495 732.467346,240.976501 732.240234,240.952698 
	C732.200500,238.212418 732.387817,235.495926 732.749023,232.435303 
	C732.945374,234.743301 732.967896,237.395462 732.956177,240.490051 
z"/>
<path fill="#272727" opacity="1.000000" stroke="none" 
	d="
M732.806641,113.217010 
	C732.842163,113.122429 732.872803,113.507729 732.867310,113.700233 
	C732.756958,113.708488 732.726685,113.514771 732.806641,113.217010 
z"/>
<path fill="#272727" opacity="1.000000" stroke="none" 
	d="
M361.722717,137.467468 
	C361.931305,169.076782 361.964661,201.046448 361.973022,233.478027 
	C361.632507,232.162750 361.045502,230.386124 361.041962,228.608353 
	C360.984711,199.823853 360.993378,171.039215 361.024658,142.254654 
	C361.026276,140.778870 361.365479,139.303436 361.722717,137.467468 
z"/>
<path fill="#272727" opacity="1.000000" stroke="none" 
	d="
M361.962677,240.569122 
	C361.921234,240.931396 361.468567,240.939941 361.246277,240.897247 
	C361.230377,240.078705 361.436798,239.302826 361.811584,238.274582 
	C361.988007,238.750427 361.996063,239.478622 361.962677,240.569122 
z"/>
</svg>